<mxfile host="Electron" modified="2024-07-18T17:17:56.319Z" agent="Mozilla/5.0 (Macintosh; Intel Mac OS X 10_15_7) AppleWebKit/537.36 (KHTML, like Gecko) draw.io/24.5.1 Chrome/124.0.6367.207 Electron/30.0.6 Safari/537.36" etag="hcTxyyrrlRbDTRFhJc9B" version="24.5.1" type="device">
  <diagram name="Page-1" id="9WrqgYbis6bKsaKwIy-s">
    <mxGraphModel dx="1674" dy="854" grid="1" gridSize="10" guides="1" tooltips="1" connect="1" arrows="1" fold="1" page="1" pageScale="1" pageWidth="850" pageHeight="1100" math="0" shadow="0">
      <root>
        <mxCell id="0" />
        <mxCell id="1" parent="0" />
        <mxCell id="3DO-5JCpj0FMkMpQ20aP-3" value="" style="edgeStyle=orthogonalEdgeStyle;rounded=0;orthogonalLoop=1;jettySize=auto;html=1;" edge="1" parent="1" source="3DO-5JCpj0FMkMpQ20aP-1" target="3DO-5JCpj0FMkMpQ20aP-2">
          <mxGeometry relative="1" as="geometry" />
        </mxCell>
        <mxCell id="3DO-5JCpj0FMkMpQ20aP-1" value="term 1" style="rounded=0;whiteSpace=wrap;html=1;" vertex="1" parent="1">
          <mxGeometry x="230" y="200" width="120" height="60" as="geometry" />
        </mxCell>
        <mxCell id="3DO-5JCpj0FMkMpQ20aP-2" value="term 2" style="rounded=0;whiteSpace=wrap;html=1;" vertex="1" parent="1">
          <mxGeometry x="230" y="330" width="120" height="60" as="geometry" />
        </mxCell>
      </root>
    </mxGraphModel>
  </diagram>
</mxfile>
